<svg xmlns="http://www.w3.org/2000/svg" viewBox="0 0 845 185" fill="none">
  <g fill="#292929">
    <path
      d="M422.748,15.435 C427.095,15.435 431.029,16.415 434.549,18.374 C438.100,20.302 440.886,23.011 442.906,26.500 C444.958,29.959 445.985,33.816 445.985,38.071 C445.985,44.560 443.765,49.963 439.326,54.279 C434.887,58.564 429.362,60.707 422.749,60.706 L411.635,60.706 L411.635,81.276 L397.400,81.276 L397.400,15.435 L422.748,15.435 Z M422.105,47.529 C424.891,47.529 427.156,46.641 428.901,44.866 C430.646,43.090 431.519,40.825 431.518,38.071 C431.518,35.316 430.646,33.067 428.901,31.323 C427.186,29.547 424.921,28.659 422.105,28.659 L411.635,28.659 L411.635,47.528 L422.105,47.529 Z"
    />
    <path
      d="M489.780,81.276 L476.923,58.824 L467.785,58.824 L467.785,81.276 L453.550,81.276 L453.550,15.435 L480.138,15.435 C486.750,15.435 492.230,17.501 496.576,21.633 C500.954,25.734 503.143,30.938 503.143,37.245 C503.143,41.499 502.072,45.310 499.928,48.677 C497.786,52.013 494.862,54.584 491.158,56.391 L505.714,81.276 L489.780,81.276 Z M467.785,28.613 L467.785,45.647 L479.173,45.647 C482.112,45.647 484.438,44.866 486.153,43.305 C487.867,41.714 488.724,39.663 488.724,37.153 C488.724,34.643 487.867,32.592 486.153,31.001 C484.439,29.409 482.112,28.613 479.173,28.613 L467.785,28.613 Z"
    />
    <path
      d="M527.615,68.007 L553.927,68.007 L553.927,81.276 L513.380,81.276 L513.380,15.435 L552.917,15.435 L552.917,28.613 L527.615,28.613 L527.615,41.606 L550.437,41.606 L550.437,54.508 L527.615,54.508 L527.615,68.007 Z"
    />
    <path
      d="M585.413,82.562 C577.760,82.562 571.591,80.542 566.907,76.501 C562.222,72.430 559.880,66.905 559.880,59.926 L574.207,59.926 C574.207,62.956 575.278,65.298 577.421,66.951 C579.564,68.572 582.197,69.383 585.320,69.383 C588.166,69.383 590.646,68.679 592.758,67.271 C594.870,65.863 595.927,63.980 595.927,61.622 C595.927,60.796 595.774,60.046 595.468,59.372 C595.192,58.699 594.702,58.102 593.998,57.582 C593.372,57.092 592.712,56.647 592.024,56.248 C591.411,55.882 590.493,55.515 589.268,55.147 C588.044,54.778 587.034,54.503 586.238,54.320 C585.473,54.106 584.309,53.815 582.746,53.447 C577.236,52.101 573.256,50.831 570.807,49.637 C564.991,46.851 561.715,42.566 560.980,36.781 C560.856,35.837 560.795,34.886 560.796,33.934 C560.796,27.690 562.924,22.853 567.179,19.425 C571.468,15.970 577.301,14.242 584.678,14.242 C592.209,14.242 598.041,16.125 602.174,19.891 C606.337,23.625 608.418,28.798 608.418,35.410 L594.321,35.410 C594.321,32.716 593.357,30.665 591.428,29.257 C589.530,27.819 587.158,27.099 584.311,27.099 C581.770,27.099 579.581,27.635 577.744,28.708 C575.938,29.780 575.035,31.326 575.035,33.345 C575.027,34.205 575.266,35.049 575.724,35.777 C576.214,36.512 576.780,37.109 577.423,37.568 C578.066,38.027 579.030,38.502 580.316,38.991 C581.602,39.451 582.704,39.803 583.622,40.047 C584.571,40.292 585.933,40.629 587.709,41.057 C589.209,41.423 590.357,41.714 591.153,41.930 C591.979,42.144 593.127,42.481 594.597,42.940 C596.066,43.399 597.229,43.828 598.087,44.226 C598.944,44.592 600.000,45.112 601.255,45.786 C602.511,46.429 603.505,47.087 604.240,47.761 C605.005,48.404 605.816,49.215 606.672,50.193 C607.560,51.173 608.233,52.198 608.692,53.269 C609.152,54.341 609.534,55.581 609.840,56.988 C610.177,58.396 610.346,59.896 610.346,61.488 C610.346,64.947 609.687,68.038 608.371,70.762 C607.054,73.487 605.248,75.706 602.952,77.420 C600.687,79.104 598.054,80.389 595.054,81.277 C592.086,82.134 588.872,82.562 585.413,82.562 Z"
    />
    <path
      d="M641.291,82.562 C633.638,82.562 627.470,80.542 622.786,76.501 C618.102,72.430 615.760,66.905 615.760,59.926 L630.087,59.926 C630.087,62.956 631.158,65.298 633.301,66.951 C635.444,68.572 638.077,69.383 641.199,69.383 C644.047,69.383 646.526,68.679 648.639,67.271 C650.751,65.863 651.807,63.980 651.807,61.622 C651.807,60.796 651.654,60.046 651.348,59.372 C651.072,58.699 650.582,58.102 649.878,57.582 C649.252,57.092 648.592,56.647 647.904,56.248 C647.291,55.882 646.373,55.515 645.149,55.147 C643.924,54.778 642.914,54.504 642.118,54.325 C641.352,54.111 640.189,53.820 638.628,53.452 C633.117,52.106 629.138,50.835 626.688,49.642 C620.872,46.856 617.597,42.571 616.862,36.785 C616.738,35.842 616.676,34.891 616.678,33.939 C616.678,27.694 618.806,22.858 623.061,19.430 C627.347,15.971 633.179,14.242 640.556,14.242 C648.088,14.242 653.919,16.125 658.052,19.891 C662.215,23.625 664.297,28.798 664.297,35.410 L650.200,35.410 C650.200,32.716 649.235,30.665 647.307,29.257 C645.409,27.819 643.036,27.099 640.189,27.099 C637.649,27.099 635.460,27.635 633.623,28.708 C631.818,29.780 630.916,31.326 630.916,33.345 C630.908,34.205 631.147,35.049 631.604,35.777 C632.094,36.512 632.661,37.109 633.303,37.568 C633.946,38.027 634.909,38.501 636.193,38.989 C637.479,39.449 638.581,39.801 639.499,40.045 C640.448,40.290 641.810,40.627 643.586,41.055 C645.086,41.422 646.234,41.712 647.030,41.928 C647.857,42.142 649.005,42.479 650.474,42.938 C651.943,43.397 653.107,43.826 653.966,44.224 C654.823,44.590 655.879,45.110 657.135,45.784 C658.390,46.427 659.385,47.086 660.120,47.759 C660.885,48.402 661.696,49.213 662.552,50.191 C663.440,51.171 664.113,52.196 664.573,53.267 C665.032,54.339 665.415,55.579 665.721,56.986 C666.057,58.394 666.226,59.894 666.226,61.486 C666.226,64.945 665.567,68.036 664.251,70.761 C662.935,73.485 661.128,75.704 658.831,77.419 C656.566,79.103 653.933,80.389 650.933,81.276 C647.965,82.133 644.751,82.562 641.291,82.562 Z"
    />
    <path
      d="M445.480,103.414 L454.111,103.414 L429.131,166.251 L421.858,166.251 L396.440,103.414 L405.161,103.414 L425.496,154.420 L445.480,103.414 Z"
    />
    <path
      d="M470.185,158.714 L498.890,158.714 L498.890,166.251 L462.340,166.251 L462.340,103.414 L497.925,103.414 L497.925,110.907 L470.185,110.907 L470.185,130.319 L495.559,130.319 L495.559,137.593 L470.185,137.593 L470.185,158.714 Z"
    />
    <path
      d="M552.080,103.414 L559.793,103.414 L559.793,166.251 L553.176,166.251 L517.415,117.217 L517.415,166.251 L509.700,166.251 L509.700,103.414 L516.801,103.414 L552.080,151.878 L552.080,103.414 Z"
    />
    <path
      d="M614.083,103.414 L614.083,110.819 L594.976,110.819 L594.976,166.250 L587.087,166.250 L587.087,110.819 L567.980,110.819 L567.980,103.414 L614.083,103.414 Z"
    />
    <path
      d="M646.287,167.303 C639.158,167.303 633.256,165.010 628.582,160.423 C623.908,155.837 621.570,149.980 621.570,142.851 L621.570,103.414 L629.546,103.414 L629.546,142.282 C629.546,147.423 631.095,151.601 634.191,154.814 C637.318,157.999 641.350,159.591 646.287,159.591 C651.166,159.591 655.154,157.999 658.251,154.814 C661.377,151.601 662.940,147.423 662.940,142.282 L662.940,103.414 L670.917,103.414 L670.917,142.851 C670.917,147.555 669.850,151.776 667.717,155.515 C665.585,159.255 662.634,162.161 658.865,164.236 C655.125,166.280 650.932,167.303 646.287,167.303 Z"
    />
    <path
      d="M721.613,166.251 L707.195,141.668 L692.864,141.668 L692.864,166.251 L685.020,166.251 L685.020,103.414 L708.817,103.414 C714.718,103.414 719.597,105.225 723.454,108.847 C727.340,112.471 729.283,117.072 729.283,122.651 C729.283,127.032 728.026,130.845 725.514,134.087 C723.001,137.301 719.641,139.521 715.434,140.748 L730.466,166.251 L721.613,166.251 Z M692.864,110.907 L692.864,134.219 L708.420,134.219 C712.248,134.219 715.345,133.138 717.711,130.976 C720.078,128.785 721.261,125.981 721.261,122.563 C721.261,119.174 720.063,116.384 717.668,114.193 C715.301,112.002 712.219,110.907 708.420,110.907 L692.864,110.907 Z"
    />
    <path
      d="M748.385,158.714 L777.090,158.714 L777.090,166.251 L740.540,166.251 L740.540,103.414 L776.125,103.414 L776.125,110.907 L748.385,110.907 L748.385,130.319 L773.759,130.319 L773.759,137.593 L748.385,137.593 L748.385,158.714 Z"
    />
    <path
      d="M806.613,167.041 C799.661,167.041 794.052,165.215 789.786,161.563 C785.549,157.911 783.430,153.018 783.430,146.884 L791.448,146.884 C791.448,150.710 792.851,153.748 795.658,155.998 C798.463,158.218 802.086,159.328 806.526,159.328 C810.559,159.328 813.919,158.350 816.605,156.392 C819.292,154.405 820.637,151.776 820.638,148.505 C820.643,147.749 820.540,146.996 820.332,146.269 C820.124,145.538 819.893,144.911 819.630,144.386 C819.367,143.831 818.943,143.305 818.359,142.809 C817.801,142.312 817.290,141.888 816.825,141.538 C816.385,141.187 815.730,140.837 814.851,140.486 C813.976,140.106 813.258,139.814 812.705,139.609 C812.179,139.376 811.361,139.113 810.249,138.821 C809.137,138.529 808.306,138.309 807.754,138.163 C807.197,138.017 806.290,137.798 805.035,137.506 C799.687,136.221 795.861,135.038 793.555,133.957 C788.499,131.532 785.591,127.895 784.832,123.046 C784.683,122.074 784.610,121.093 784.613,120.110 C784.613,114.706 786.541,110.440 790.397,107.315 C794.252,104.188 799.453,102.626 806.000,102.626 C812.485,102.626 817.597,104.306 821.336,107.665 C825.107,110.995 826.991,115.523 826.990,121.249 L819.190,121.249 C819.190,117.831 817.935,115.129 815.424,113.143 C812.940,111.155 809.740,110.161 805.823,110.161 C801.939,110.161 798.740,111.038 796.227,112.790 C793.742,114.513 792.501,116.836 792.504,119.757 C792.504,120.721 792.649,121.612 792.939,122.430 C793.236,123.173 793.619,123.879 794.081,124.533 C794.516,125.118 795.158,125.687 796.007,126.242 C796.855,126.768 797.629,127.207 798.330,127.557 C799.032,127.878 799.996,128.229 801.221,128.608 C802.481,128.988 803.518,129.280 804.332,129.485 C805.153,129.690 806.290,129.967 807.754,130.318 C813.097,131.632 816.924,132.830 819.233,133.911 C824.436,136.306 827.504,139.914 828.438,144.734 C828.676,145.946 828.793,147.179 828.787,148.415 C828.787,152.271 827.794,155.631 825.809,158.494 C823.851,161.327 821.207,163.459 817.876,164.891 C814.577,166.324 810.823,167.041 806.613,167.041 Z"
    />
    <path
      d="M814.553,15.427 L828.790,15.427 L828.790,82.548 L816.658,82.548 L786.218,40.609 L786.218,82.548 L771.980,82.548 L771.980,15.427 L785.094,15.427 L814.554,56.383 L814.553,15.427 Z"
    />
    <path
      d="M716.513,37.301 L708.568,27.136 L698.961,36.739 C698.901,36.800 698.853,36.872 698.820,36.951 C698.787,37.030 698.770,37.115 698.770,37.201 L698.770,61.936 C698.770,62.022 698.787,62.107 698.820,62.186 C698.853,62.265 698.901,62.337 698.961,62.398 L718.929,82.363 C718.989,82.423 719.061,82.471 719.140,82.504 C719.220,82.537 719.305,82.554 719.390,82.554 L744.128,82.554 C744.214,82.554 744.298,82.537 744.378,82.504 C744.457,82.471 744.529,82.423 744.590,82.363 L764.557,62.398 C764.679,62.275 764.748,62.109 764.748,61.936 L764.748,37.201 C764.748,37.028 764.679,36.862 764.557,36.739 L754.840,27.023 L746.636,37.521 C749.236,40.872 750.645,44.994 750.638,49.236 C750.638,59.811 742.064,68.384 731.488,68.384 C720.911,68.384 712.338,59.811 712.338,49.236 C712.332,44.899 713.804,40.689 716.513,37.301 L716.513,37.301 Z"
    />
    <path d="M738.949,15.427 L738.949,50.851 L724.590,50.851 L724.590,15.427 L738.949,15.427 Z" />
    <path
      d="M54.964,66.021 L37.990,44.299 L17.463,64.821 C17.333,64.950 17.230,65.104 17.160,65.273 C17.090,65.443 17.054,65.624 17.054,65.807 L17.054,118.663 C17.054,118.846 17.090,119.028 17.160,119.197 C17.230,119.367 17.333,119.520 17.463,119.650 L60.126,162.313 C60.256,162.443 60.410,162.545 60.579,162.616 C60.748,162.686 60.930,162.722 61.113,162.722 L113.968,162.722 C114.152,162.722 114.333,162.686 114.503,162.616 C114.672,162.546 114.826,162.443 114.956,162.313 L157.619,119.650 C157.881,119.388 158.028,119.033 158.028,118.663 L158.028,65.807 C158.028,65.437 157.881,65.082 157.619,64.821 L136.856,44.058 L119.329,66.490 C124.884,73.651 127.893,82.461 127.879,91.524 C127.879,114.123 109.560,132.442 86.961,132.442 C64.362,132.442 46.044,114.123 46.044,91.524 C46.030,82.256 49.177,73.260 54.964,66.021 L54.964,66.021 Z"
    />
    <path d="M102.899,19.278 L102.899,94.975 L72.217,94.975 L72.217,19.278 L102.899,19.278 Z" />
  </g>
</svg>
