<svg xmlns="http://www.w3.org/2000/svg" viewBox="0 0 175 185" fill="none">
  <g fill="#292929">
    <path
      d="M54.964,66.021 L37.990,44.299 L17.463,64.821 C17.333,64.950 17.230,65.104 17.160,65.273 C17.090,65.443 17.054,65.624 17.054,65.807 L17.054,118.663 C17.054,118.846 17.090,119.028 17.160,119.197 C17.230,119.367 17.333,119.520 17.463,119.650 L60.126,162.313 C60.256,162.443 60.410,162.545 60.579,162.616 C60.748,162.686 60.930,162.722 61.113,162.722 L113.968,162.722 C114.152,162.722 114.333,162.686 114.503,162.616 C114.672,162.546 114.826,162.443 114.956,162.313 L157.619,119.650 C157.881,119.388 158.028,119.033 158.028,118.663 L158.028,65.807 C158.028,65.437 157.881,65.082 157.619,64.821 L136.856,44.058 L119.329,66.490 C124.884,73.651 127.893,82.461 127.879,91.524 C127.879,114.123 109.560,132.442 86.961,132.442 C64.362,132.442 46.044,114.123 46.044,91.524 C46.030,82.256 49.177,73.260 54.964,66.021 L54.964,66.021 Z"
    />
    <path d="M102.899,19.278 L102.899,94.975 L72.217,94.975 L72.217,19.278 L102.899,19.278 Z" />
  </g>
</svg>
